<mxfile host="app.diagrams.net" modified="2024-01-23T13:20:28.336Z" agent="Mozilla/5.0 (Windows NT 10.0; Win64; x64) AppleWebKit/537.36 (KHTML, like Gecko) Chrome/120.0.0.0 Safari/537.36" etag="vrLAAkJDcpSkplN6Qt7A" version="22.1.21" type="github">
  <diagram name="Page-1" id="5f0bae14-7c28-e335-631c-24af17079c00">
    <mxGraphModel dx="2927" dy="1188" grid="1" gridSize="5" guides="1" tooltips="1" connect="1" arrows="1" fold="1" page="1" pageScale="1" pageWidth="827" pageHeight="1169" background="none" math="0" shadow="0">
      <root>
        <mxCell id="0" />
        <mxCell id="1" parent="0" />
        <mxCell id="39150e848f15840c-3" value="&lt;font color=&quot;#00cc00&quot; style=&quot;font-size: 24px;&quot;&gt;&lt;b&gt;&lt;font style=&quot;&quot;&gt;MiddleWare System -&amp;nbsp;&lt;/font&gt;Ubuntu Server 20.04&lt;/b&gt;&lt;/font&gt;" style="verticalAlign=top;align=center;spacingTop=8;spacingLeft=2;spacingRight=12;shape=cube;size=10;direction=south;fontStyle=4;html=1;rounded=0;shadow=0;comic=0;labelBackgroundColor=none;strokeWidth=1;fontFamily=Verdana;fontSize=12" parent="1" vertex="1">
          <mxGeometry x="-573" y="1091.02" width="1188.5" height="500" as="geometry" />
        </mxCell>
        <mxCell id="8QEgMLqhfqmSk67ohwxv-77" value="" style="rounded=1;whiteSpace=wrap;html=1;absoluteArcSize=1;arcSize=14;strokeWidth=2;" vertex="1" parent="1">
          <mxGeometry x="382" y="473.06999999999994" width="280" height="100" as="geometry" />
        </mxCell>
        <mxCell id="8QEgMLqhfqmSk67ohwxv-10" value="" style="html=1;verticalLabelPosition=bottom;align=center;labelBackgroundColor=#ffffff;verticalAlign=top;strokeWidth=2;strokeColor=#0080F0;shadow=0;dashed=0;shape=mxgraph.ios7.icons.cloud;" vertex="1" parent="1">
          <mxGeometry x="-650" y="60" width="626.67" height="380" as="geometry" />
        </mxCell>
        <mxCell id="8QEgMLqhfqmSk67ohwxv-84" style="edgeStyle=orthogonalEdgeStyle;rounded=0;orthogonalLoop=1;jettySize=auto;html=1;exitX=0;exitY=0.75;exitDx=0;exitDy=0;" edge="1" parent="1" source="wri180PLoIIAqy83a-aI-10" target="wri180PLoIIAqy83a-aI-13">
          <mxGeometry relative="1" as="geometry" />
        </mxCell>
        <mxCell id="wri180PLoIIAqy83a-aI-10" value="Code That Run 24/7 with nohup" style="swimlane;horizontal=0;whiteSpace=wrap;html=1;fillColor=#fff2cc;strokeColor=#d6b656;gradientColor=none;swimlaneFillColor=#99CCFF;" parent="1" vertex="1">
          <mxGeometry x="-193" y="1159.02" width="350" height="410" as="geometry" />
        </mxCell>
        <mxCell id="wri180PLoIIAqy83a-aI-11" value="&lt;font style=&quot;font-size: 26px;&quot;&gt;REST OF THE CODE&lt;/font&gt;" style="text;html=1;align=center;verticalAlign=middle;resizable=0;points=[];autosize=1;strokeColor=none;fillColor=none;" parent="wri180PLoIIAqy83a-aI-10" vertex="1">
          <mxGeometry x="49" y="203" width="280" height="40" as="geometry" />
        </mxCell>
        <mxCell id="wri180PLoIIAqy83a-aI-12" value="Extracting the data, decoding, reserialize data, &lt;br&gt;validate the data, catch the data,&lt;br&gt;rearrange, create email stuff, etc. and send the data" style="text;html=1;align=center;verticalAlign=middle;resizable=0;points=[];autosize=1;strokeColor=none;fillColor=none;" parent="wri180PLoIIAqy83a-aI-10" vertex="1">
          <mxGeometry x="29" y="250" width="300" height="60" as="geometry" />
        </mxCell>
        <mxCell id="wri180PLoIIAqy83a-aI-30" value="" style="dashed=0;outlineConnect=0;html=1;align=center;labelPosition=center;verticalLabelPosition=bottom;verticalAlign=top;shape=mxgraph.webicons.java;gradientColor=#DFDEDE" parent="wri180PLoIIAqy83a-aI-10" vertex="1">
          <mxGeometry x="139.75" y="317.98" width="90.5" height="83.98" as="geometry" />
        </mxCell>
        <mxCell id="39150e848f15840c-1" value="&lt;span style=&quot;font-size: 24px;&quot;&gt;&lt;b&gt;&lt;font color=&quot;#00cc00&quot;&gt;SpotWare&lt;/font&gt;&lt;/b&gt;&lt;/span&gt;" style="verticalAlign=top;align=center;spacingTop=8;spacingLeft=2;spacingRight=12;shape=cube;size=10;direction=south;fontStyle=4;html=1;rounded=0;shadow=0;comic=0;labelBackgroundColor=none;strokeWidth=1;fontFamily=Verdana;fontSize=12" parent="1" vertex="1">
          <mxGeometry x="-526" y="193" width="330" height="220" as="geometry" />
        </mxCell>
        <mxCell id="39150e848f15840c-2" value="&lt;font size=&quot;1&quot; color=&quot;#00cc00&quot; style=&quot;&quot;&gt;&lt;b style=&quot;font-size: 22px;&quot;&gt;Notify The Person In Charge&lt;/b&gt;&lt;/font&gt;" style="verticalAlign=top;align=center;spacingTop=8;spacingLeft=2;spacingRight=12;shape=cube;size=10;direction=south;fontStyle=4;html=1;rounded=0;shadow=0;comic=0;labelBackgroundColor=none;strokeWidth=1;fontFamily=Verdana;fontSize=12" parent="1" vertex="1">
          <mxGeometry x="-586" y="621.33" width="386" height="257.33" as="geometry" />
        </mxCell>
        <mxCell id="39150e848f15840c-5" value="&lt;font style=&quot;font-size: 36px;&quot;&gt;Reporting&lt;br&gt;API&lt;/font&gt;" style="shape=component;align=center;spacingLeft=36;rounded=0;shadow=0;comic=0;labelBackgroundColor=none;strokeWidth=1;fontFamily=Verdana;fontSize=12;html=1;" parent="1" vertex="1">
          <mxGeometry x="-477" y="255" width="221" height="84" as="geometry" />
        </mxCell>
        <mxCell id="39150e848f15840c-8" value="&lt;font style=&quot;font-size: 18px;&quot;&gt;endpoint,&lt;br&gt;another system,&lt;br&gt;or even gmail, etc&lt;/font&gt;" style="html=1;rounded=0;shadow=0;comic=0;labelBackgroundColor=none;strokeWidth=1;fontFamily=Verdana;fontSize=12;align=center;" parent="1" vertex="1">
          <mxGeometry x="-525" y="670" width="264.01" height="120" as="geometry" />
        </mxCell>
        <mxCell id="39150e848f15840c-10" value="&lt;font style=&quot;font-size: 24px;&quot;&gt;Maven,&lt;br&gt;Java,&lt;br&gt;Java Mail System,&lt;br&gt;Protobuf Compiler,&lt;br&gt;Compiled Classes,&lt;br&gt;Stunnel 5672/5673,&lt;br&gt;Ubuntu 20.04,&lt;br&gt;Demo/Live Listening,&lt;br&gt;RabbitMQ&lt;/font&gt;" style="shape=component;align=center;spacingLeft=36;rounded=0;shadow=0;comic=0;labelBackgroundColor=none;strokeWidth=1;fontFamily=Verdana;fontSize=12;html=1;" parent="1" vertex="1">
          <mxGeometry x="186.10000000000002" y="1206.02" width="383.14" height="298" as="geometry" />
        </mxCell>
        <mxCell id="39150e848f15840c-12" style="edgeStyle=none;rounded=0;html=1;dashed=1;labelBackgroundColor=none;startArrow=none;startFill=0;startSize=8;endArrow=none;endFill=0;endSize=16;fontFamily=Verdana;fontSize=12;entryX=0.5;entryY=1;entryDx=0;entryDy=0;" parent="1" target="39150e848f15840c-8" edge="1">
          <mxGeometry relative="1" as="geometry">
            <mxPoint x="-393" y="880" as="sourcePoint" />
            <mxPoint x="-393" y="810" as="targetPoint" />
          </mxGeometry>
        </mxCell>
        <mxCell id="39150e848f15840c-14" style="edgeStyle=elbowEdgeStyle;rounded=0;html=1;labelBackgroundColor=none;startArrow=none;startFill=0;startSize=8;endArrow=none;endFill=0;endSize=16;fontFamily=Verdana;fontSize=12;strokeWidth=3;" parent="1" source="39150e848f15840c-6" target="39150e848f15840c-5" edge="1">
          <mxGeometry relative="1" as="geometry" />
        </mxCell>
        <mxCell id="wri180PLoIIAqy83a-aI-6" value="&lt;b&gt;Listen For &lt;/b&gt;&lt;br&gt;MarginCallEvent&lt;br&gt;MarginCall" style="html=1;rounded=0;shadow=0;comic=0;labelBackgroundColor=none;strokeWidth=1;fontFamily=Verdana;fontSize=12;align=center;" parent="1" vertex="1">
          <mxGeometry x="-68" y="1295.02" width="110" height="50" as="geometry" />
        </mxCell>
        <mxCell id="wri180PLoIIAqy83a-aI-9" value="&lt;font style=&quot;font-size: 24px;&quot;&gt;Create Object&lt;/font&gt; Java&amp;nbsp;&lt;span style=&quot;font-weight: bold; color: rgb(95, 99, 104); font-family: arial, sans-serif; font-size: 14px; text-align: left; background-color: rgb(255, 255, 255);&quot;&gt;Constructors&lt;br&gt;From compiled .proto&lt;br&gt;file&lt;br&gt;&lt;/span&gt;" style="shape=process;whiteSpace=wrap;html=1;backgroundOutline=1;" parent="1" vertex="1">
          <mxGeometry x="-115.5" y="1195.02" width="205" height="100" as="geometry" />
        </mxCell>
        <mxCell id="wri180PLoIIAqy83a-aI-13" value="&lt;font style=&quot;&quot;&gt;&lt;font style=&quot;font-size: 30px;&quot;&gt;DATABASE&lt;br&gt;&lt;/font&gt;&lt;br&gt;&lt;font style=&quot;font-size: 24px;&quot;&gt;Log the incoming and outgoing data,&lt;br&gt;gather information&lt;br&gt;about sent emails,&lt;br&gt;crashes,&lt;br&gt;analytics,&lt;br&gt;statistics&lt;/font&gt;&lt;/font&gt;" style="shape=cylinder3;whiteSpace=wrap;html=1;boundedLbl=1;backgroundOutline=1;size=15;gradientColor=#FFE6CC;" parent="1" vertex="1">
          <mxGeometry x="-530.99" y="1268.02" width="270" height="301" as="geometry" />
        </mxCell>
        <mxCell id="wri180PLoIIAqy83a-aI-18" value="&lt;font style=&quot;font-size: 36px;&quot;&gt;Configured&lt;br&gt;Stunnel&lt;/font&gt;" style="ellipse;shape=cloud;whiteSpace=wrap;html=1;" parent="1" vertex="1">
          <mxGeometry x="348.23" y="185" width="318.54" height="202" as="geometry" />
        </mxCell>
        <mxCell id="wri180PLoIIAqy83a-aI-25" value="" style="image;points=[];aspect=fixed;html=1;align=center;shadow=0;dashed=0;image=img/lib/allied_telesis/storage/Datacenter_Server_Half_Rack_ToR.svg;" parent="1" vertex="1">
          <mxGeometry x="-556" y="313" width="88.2" height="114.6" as="geometry" />
        </mxCell>
        <mxCell id="wri180PLoIIAqy83a-aI-26" value="" style="outlineConnect=0;dashed=0;verticalLabelPosition=bottom;verticalAlign=top;align=center;html=1;shape=mxgraph.aws3.email_notification;fillColor=#D9A741;gradientColor=none;" parent="1" vertex="1">
          <mxGeometry x="-597" y="805.59" width="120" height="73.07" as="geometry" />
        </mxCell>
        <mxCell id="8QEgMLqhfqmSk67ohwxv-3" style="edgeStyle=orthogonalEdgeStyle;rounded=0;orthogonalLoop=1;jettySize=auto;html=1;exitX=0.975;exitY=0.628;exitDx=0;exitDy=0;strokeWidth=3;exitPerimeter=0;" edge="1" parent="1" source="8QEgMLqhfqmSk67ohwxv-10">
          <mxGeometry relative="1" as="geometry">
            <mxPoint x="388" y="298" as="targetPoint" />
            <Array as="points">
              <mxPoint x="177" y="299" />
            </Array>
          </mxGeometry>
        </mxCell>
        <mxCell id="8QEgMLqhfqmSk67ohwxv-4" value="&lt;font style=&quot;font-size: 24px;&quot;&gt;Outgoing&lt;br&gt;Data&lt;/font&gt;" style="text;html=1;align=center;verticalAlign=middle;resizable=0;points=[];autosize=1;strokeColor=none;fillColor=none;rotation=0;" vertex="1" parent="1">
          <mxGeometry x="-190" y="262" width="120" height="70" as="geometry" />
        </mxCell>
        <mxCell id="8QEgMLqhfqmSk67ohwxv-11" value="&lt;font color=&quot;#6666ff&quot; style=&quot;font-size: 48px;&quot;&gt;&lt;b style=&quot;&quot;&gt;Cloud&lt;/b&gt;&lt;/font&gt;" style="text;html=1;align=center;verticalAlign=middle;resizable=0;points=[];autosize=1;strokeColor=none;fillColor=none;glass=0;" vertex="1" parent="1">
          <mxGeometry x="-375" y="100" width="160" height="70" as="geometry" />
        </mxCell>
        <mxCell id="8QEgMLqhfqmSk67ohwxv-19" value="" style="ellipse;whiteSpace=wrap;html=1;rounded=0;shadow=0;comic=0;labelBackgroundColor=none;strokeWidth=1;fontFamily=Verdana;fontSize=12;align=center;" vertex="1" parent="1">
          <mxGeometry x="108.03999999999996" y="290" width="20" height="20" as="geometry" />
        </mxCell>
        <mxCell id="8QEgMLqhfqmSk67ohwxv-20" value="" style="shape=image;html=1;verticalAlign=top;verticalLabelPosition=bottom;labelBackgroundColor=#ffffff;imageAspect=0;aspect=fixed;image=https://cdn3.iconfinder.com/data/icons/webdesigncreative/free_icons_64x64_png/Binary-words.png" vertex="1" parent="1">
          <mxGeometry x="104.03999999999996" y="286" width="28" height="28" as="geometry" />
        </mxCell>
        <mxCell id="8QEgMLqhfqmSk67ohwxv-26" value="" style="endArrow=classic;html=1;rounded=0;strokeWidth=4;" edge="1" parent="1">
          <mxGeometry relative="1" as="geometry">
            <mxPoint x="-393" y="1090" as="sourcePoint" />
            <mxPoint x="-393" y="880" as="targetPoint" />
          </mxGeometry>
        </mxCell>
        <mxCell id="8QEgMLqhfqmSk67ohwxv-27" value="" style="shape=message;html=1;outlineConnect=0;strokeWidth=2;" vertex="1" parent="8QEgMLqhfqmSk67ohwxv-26">
          <mxGeometry width="65.71" height="46" relative="1" as="geometry">
            <mxPoint x="-32.86" y="-23" as="offset" />
          </mxGeometry>
        </mxCell>
        <mxCell id="8QEgMLqhfqmSk67ohwxv-85" value="Gmail" style="edgeLabel;html=1;align=center;verticalAlign=middle;resizable=0;points=[];fontSize=19;fontStyle=3" vertex="1" connectable="0" parent="8QEgMLqhfqmSk67ohwxv-26">
          <mxGeometry x="-0.0748" y="4" relative="1" as="geometry">
            <mxPoint x="2" as="offset" />
          </mxGeometry>
        </mxCell>
        <mxCell id="8QEgMLqhfqmSk67ohwxv-15" value="" style="shape=image;html=1;verticalAlign=top;verticalLabelPosition=bottom;labelBackgroundColor=#ffffff;imageAspect=0;aspect=fixed;image=https://cdn1.iconfinder.com/data/icons/nuvola2/128x128/mimetypes/binary.png" vertex="1" parent="1">
          <mxGeometry x="99.92000000000002" y="282" width="32" height="32" as="geometry" />
        </mxCell>
        <mxCell id="8QEgMLqhfqmSk67ohwxv-16" value="" style="shadow=0;dashed=0;html=1;strokeColor=none;fillColor=#4495D1;labelPosition=center;verticalLabelPosition=bottom;verticalAlign=top;align=center;outlineConnect=0;shape=mxgraph.veeam.magnifying_glass;pointerEvents=1;" vertex="1" parent="1">
          <mxGeometry x="82" y="265" width="86.85" height="85.6" as="geometry" />
        </mxCell>
        <mxCell id="8QEgMLqhfqmSk67ohwxv-32" value="" style="strokeWidth=2;html=1;shape=mxgraph.flowchart.annotation_2;align=left;labelPosition=right;pointerEvents=1;rotation=90;" vertex="1" parent="1">
          <mxGeometry x="93.5" y="84.5" width="50" height="307" as="geometry" />
        </mxCell>
        <mxCell id="8QEgMLqhfqmSk67ohwxv-33" value="&lt;font style=&quot;font-size: 23px;&quot;&gt;Serialized&lt;/font&gt;&lt;br style=&quot;font-size: 23px;&quot;&gt;&lt;font style=&quot;font-size: 23px;&quot;&gt;Binary Data as EVENTS&lt;/font&gt;" style="text;html=1;align=center;verticalAlign=middle;resizable=0;points=[];autosize=1;strokeColor=none;fillColor=none;fontSize=23;" vertex="1" parent="1">
          <mxGeometry x="-15.95999999999998" y="150" width="270" height="70" as="geometry" />
        </mxCell>
        <mxCell id="8QEgMLqhfqmSk67ohwxv-34" value="" style="ellipse;whiteSpace=wrap;html=1;rounded=0;shadow=0;comic=0;labelBackgroundColor=none;strokeWidth=1;fontFamily=Verdana;fontSize=12;align=center;" vertex="1" parent="1">
          <mxGeometry x="156" y="288.25" width="20" height="20" as="geometry" />
        </mxCell>
        <mxCell id="8QEgMLqhfqmSk67ohwxv-35" value="" style="shape=image;html=1;verticalAlign=top;verticalLabelPosition=bottom;labelBackgroundColor=#ffffff;imageAspect=0;aspect=fixed;image=https://cdn3.iconfinder.com/data/icons/webdesigncreative/free_icons_64x64_png/Binary-words.png" vertex="1" parent="1">
          <mxGeometry x="152" y="284.25" width="28" height="28" as="geometry" />
        </mxCell>
        <mxCell id="8QEgMLqhfqmSk67ohwxv-36" value="" style="ellipse;whiteSpace=wrap;html=1;rounded=0;shadow=0;comic=0;labelBackgroundColor=none;strokeWidth=1;fontFamily=Verdana;fontSize=12;align=center;" vertex="1" parent="1">
          <mxGeometry x="191.04000000000002" y="288.25" width="20" height="20" as="geometry" />
        </mxCell>
        <mxCell id="8QEgMLqhfqmSk67ohwxv-37" value="" style="shape=image;html=1;verticalAlign=top;verticalLabelPosition=bottom;labelBackgroundColor=#ffffff;imageAspect=0;aspect=fixed;image=https://cdn3.iconfinder.com/data/icons/webdesigncreative/free_icons_64x64_png/Binary-words.png" vertex="1" parent="1">
          <mxGeometry x="189.29000000000002" y="286.5" width="23.5" height="23.5" as="geometry" />
        </mxCell>
        <mxCell id="8QEgMLqhfqmSk67ohwxv-38" value="" style="ellipse;whiteSpace=wrap;html=1;rounded=0;shadow=0;comic=0;labelBackgroundColor=none;strokeWidth=1;fontFamily=Verdana;fontSize=12;align=center;" vertex="1" parent="1">
          <mxGeometry x="224" y="287.75" width="20" height="20" as="geometry" />
        </mxCell>
        <mxCell id="8QEgMLqhfqmSk67ohwxv-39" value="" style="shape=image;html=1;verticalAlign=top;verticalLabelPosition=bottom;labelBackgroundColor=#ffffff;imageAspect=0;aspect=fixed;image=https://cdn3.iconfinder.com/data/icons/webdesigncreative/free_icons_64x64_png/Binary-words.png" vertex="1" parent="1">
          <mxGeometry x="220" y="283.75" width="28" height="28" as="geometry" />
        </mxCell>
        <mxCell id="8QEgMLqhfqmSk67ohwxv-40" value="" style="ellipse;whiteSpace=wrap;html=1;rounded=0;shadow=0;comic=0;labelBackgroundColor=none;strokeWidth=1;fontFamily=Verdana;fontSize=12;align=center;" vertex="1" parent="1">
          <mxGeometry x="258.04" y="287.75" width="20" height="20" as="geometry" />
        </mxCell>
        <mxCell id="8QEgMLqhfqmSk67ohwxv-41" value="" style="shape=image;html=1;verticalAlign=top;verticalLabelPosition=bottom;labelBackgroundColor=#ffffff;imageAspect=0;aspect=fixed;image=https://cdn3.iconfinder.com/data/icons/webdesigncreative/free_icons_64x64_png/Binary-words.png" vertex="1" parent="1">
          <mxGeometry x="254.04000000000002" y="283.75" width="28" height="28" as="geometry" />
        </mxCell>
        <mxCell id="8QEgMLqhfqmSk67ohwxv-42" value="" style="ellipse;whiteSpace=wrap;html=1;rounded=0;shadow=0;comic=0;labelBackgroundColor=none;strokeWidth=1;fontFamily=Verdana;fontSize=12;align=center;" vertex="1" parent="1">
          <mxGeometry x="14" y="288" width="20" height="20" as="geometry" />
        </mxCell>
        <mxCell id="8QEgMLqhfqmSk67ohwxv-43" value="" style="shape=image;html=1;verticalAlign=top;verticalLabelPosition=bottom;labelBackgroundColor=#ffffff;imageAspect=0;aspect=fixed;image=https://cdn3.iconfinder.com/data/icons/webdesigncreative/free_icons_64x64_png/Binary-words.png" vertex="1" parent="1">
          <mxGeometry x="10" y="284" width="28" height="28" as="geometry" />
        </mxCell>
        <mxCell id="8QEgMLqhfqmSk67ohwxv-44" value="" style="ellipse;whiteSpace=wrap;html=1;rounded=0;shadow=0;comic=0;labelBackgroundColor=none;strokeWidth=1;fontFamily=Verdana;fontSize=12;align=center;" vertex="1" parent="1">
          <mxGeometry x="50.04000000000002" y="288" width="20" height="20" as="geometry" />
        </mxCell>
        <mxCell id="8QEgMLqhfqmSk67ohwxv-45" value="" style="shape=image;html=1;verticalAlign=top;verticalLabelPosition=bottom;labelBackgroundColor=#ffffff;imageAspect=0;aspect=fixed;image=https://cdn3.iconfinder.com/data/icons/webdesigncreative/free_icons_64x64_png/Binary-words.png" vertex="1" parent="1">
          <mxGeometry x="46.04000000000002" y="284" width="28" height="28" as="geometry" />
        </mxCell>
        <mxCell id="8QEgMLqhfqmSk67ohwxv-52" value="" style="sketch=0;aspect=fixed;pointerEvents=1;shadow=0;dashed=0;html=1;strokeColor=none;labelPosition=center;verticalLabelPosition=bottom;verticalAlign=top;align=center;fillColor=#D5E8D4;shape=mxgraph.mscae.enterprise.lock" vertex="1" parent="1">
          <mxGeometry x="56.139999999999986" y="308" width="7.8" height="10" as="geometry" />
        </mxCell>
        <mxCell id="8QEgMLqhfqmSk67ohwxv-53" value="" style="sketch=0;aspect=fixed;pointerEvents=1;shadow=0;dashed=0;html=1;strokeColor=none;labelPosition=center;verticalLabelPosition=bottom;verticalAlign=top;align=center;fillColor=#D5E8D4;shape=mxgraph.mscae.enterprise.lock" vertex="1" parent="1">
          <mxGeometry x="162.1" y="308" width="7.8" height="10" as="geometry" />
        </mxCell>
        <mxCell id="8QEgMLqhfqmSk67ohwxv-54" value="" style="sketch=0;aspect=fixed;pointerEvents=1;shadow=0;dashed=0;html=1;strokeColor=none;labelPosition=center;verticalLabelPosition=bottom;verticalAlign=top;align=center;fillColor=#D5E8D4;shape=mxgraph.mscae.enterprise.lock" vertex="1" parent="1">
          <mxGeometry x="197.14000000000004" y="308.25" width="7.8" height="10" as="geometry" />
        </mxCell>
        <mxCell id="8QEgMLqhfqmSk67ohwxv-55" value="" style="sketch=0;aspect=fixed;pointerEvents=1;shadow=0;dashed=0;html=1;strokeColor=none;labelPosition=center;verticalLabelPosition=bottom;verticalAlign=top;align=center;fillColor=#D5E8D4;shape=mxgraph.mscae.enterprise.lock" vertex="1" parent="1">
          <mxGeometry x="230.10000000000002" y="307.75" width="7.8" height="10" as="geometry" />
        </mxCell>
        <mxCell id="8QEgMLqhfqmSk67ohwxv-56" value="" style="sketch=0;aspect=fixed;pointerEvents=1;shadow=0;dashed=0;html=1;strokeColor=none;labelPosition=center;verticalLabelPosition=bottom;verticalAlign=top;align=center;fillColor=#D5E8D4;shape=mxgraph.mscae.enterprise.lock" vertex="1" parent="1">
          <mxGeometry x="264.14000000000004" y="307.75" width="7.8" height="10" as="geometry" />
        </mxCell>
        <mxCell id="8QEgMLqhfqmSk67ohwxv-58" value="" style="sketch=0;aspect=fixed;pointerEvents=1;shadow=0;dashed=0;html=1;strokeColor=none;labelPosition=center;verticalLabelPosition=bottom;verticalAlign=top;align=center;fillColor=#00FF00;shape=mxgraph.mscae.enterprise.lock" vertex="1" parent="1">
          <mxGeometry x="109.88" y="294.5" width="12.09" height="15.5" as="geometry" />
        </mxCell>
        <mxCell id="39150e848f15840c-6" value="" style="ellipse;whiteSpace=wrap;html=1;rounded=0;shadow=0;comic=0;labelBackgroundColor=none;strokeWidth=1;fontFamily=Verdana;fontSize=12;align=center;" parent="1" vertex="1">
          <mxGeometry x="-19" y="288" width="20" height="20" as="geometry" />
        </mxCell>
        <mxCell id="wri180PLoIIAqy83a-aI-20" value="" style="sketch=0;aspect=fixed;pointerEvents=1;shadow=0;dashed=0;html=1;strokeColor=none;labelPosition=center;verticalLabelPosition=bottom;verticalAlign=top;align=center;fillColor=#D5E8D4;shape=mxgraph.mscae.enterprise.lock" parent="1" vertex="1">
          <mxGeometry x="-12.899999999999977" y="307.75" width="7.8" height="10" as="geometry" />
        </mxCell>
        <mxCell id="8QEgMLqhfqmSk67ohwxv-18" value="" style="shape=image;html=1;verticalAlign=top;verticalLabelPosition=bottom;labelBackgroundColor=#ffffff;imageAspect=0;aspect=fixed;image=https://cdn3.iconfinder.com/data/icons/webdesigncreative/free_icons_64x64_png/Binary-words.png" vertex="1" parent="1">
          <mxGeometry x="-23" y="284" width="28" height="28" as="geometry" />
        </mxCell>
        <mxCell id="8QEgMLqhfqmSk67ohwxv-51" value="" style="sketch=0;aspect=fixed;pointerEvents=1;shadow=0;dashed=0;html=1;strokeColor=none;labelPosition=center;verticalLabelPosition=bottom;verticalAlign=top;align=center;fillColor=#D5E8D4;shape=mxgraph.mscae.enterprise.lock" vertex="1" parent="1">
          <mxGeometry x="20.100000000000023" y="308" width="7.8" height="10" as="geometry" />
        </mxCell>
        <mxCell id="8QEgMLqhfqmSk67ohwxv-59" value="" style="edgeStyle=none;orthogonalLoop=1;jettySize=auto;html=1;rounded=0;strokeWidth=4;exitX=0.5;exitY=1;exitDx=0;exitDy=0;" edge="1" parent="1" source="8QEgMLqhfqmSk67ohwxv-69">
          <mxGeometry width="100" relative="1" as="geometry">
            <mxPoint x="518.0812587849447" y="952.0012587849442" as="sourcePoint" />
            <mxPoint x="520" y="1090" as="targetPoint" />
            <Array as="points" />
          </mxGeometry>
        </mxCell>
        <mxCell id="8QEgMLqhfqmSk67ohwxv-72" value="&lt;font style=&quot;font-size: 24px;&quot;&gt;YES&lt;/font&gt;" style="edgeLabel;html=1;align=center;verticalAlign=middle;resizable=0;points=[];labelBackgroundColor=default;labelBorderColor=default;" vertex="1" connectable="0" parent="8QEgMLqhfqmSk67ohwxv-59">
          <mxGeometry x="-0.1744" relative="1" as="geometry">
            <mxPoint as="offset" />
          </mxGeometry>
        </mxCell>
        <mxCell id="8QEgMLqhfqmSk67ohwxv-60" value="" style="endArrow=none;dashed=1;html=1;dashPattern=1 3;strokeWidth=2;rounded=0;" edge="1" parent="1">
          <mxGeometry width="50" height="50" relative="1" as="geometry">
            <mxPoint x="320" y="540" as="sourcePoint" />
            <mxPoint x="320" y="120" as="targetPoint" />
          </mxGeometry>
        </mxCell>
        <mxCell id="8QEgMLqhfqmSk67ohwxv-61" value="&lt;font style=&quot;font-size: 24px;&quot;&gt;Entry point&lt;br&gt;&amp;nbsp;to &lt;br&gt;our system&lt;/font&gt;" style="edgeLabel;html=1;align=center;verticalAlign=middle;resizable=0;points=[];labelBackgroundColor=none;" vertex="1" connectable="0" parent="8QEgMLqhfqmSk67ohwxv-60">
          <mxGeometry x="0.8237" relative="1" as="geometry">
            <mxPoint x="1" y="-50" as="offset" />
          </mxGeometry>
        </mxCell>
        <mxCell id="8QEgMLqhfqmSk67ohwxv-63" value="" style="pointerEvents=1;shadow=0;dashed=0;html=1;strokeColor=none;fillColor=#505050;labelPosition=center;verticalLabelPosition=bottom;verticalAlign=top;outlineConnect=0;align=center;shape=mxgraph.office.servers.server_side_code;gradientColor=none;" vertex="1" parent="1">
          <mxGeometry x="-58.5" y="935" width="148" height="169.14" as="geometry" />
        </mxCell>
        <mxCell id="8QEgMLqhfqmSk67ohwxv-70" value="" style="edgeStyle=none;orthogonalLoop=1;jettySize=auto;html=1;rounded=0;strokeWidth=4;exitX=0.5;exitY=1;exitDx=0;exitDy=0;" edge="1" parent="1" source="8QEgMLqhfqmSk67ohwxv-77" target="8QEgMLqhfqmSk67ohwxv-69">
          <mxGeometry width="100" relative="1" as="geometry">
            <mxPoint x="520.0037889273353" y="590" as="sourcePoint" />
            <mxPoint x="520" y="630" as="targetPoint" />
            <Array as="points" />
          </mxGeometry>
        </mxCell>
        <mxCell id="8QEgMLqhfqmSk67ohwxv-73" style="edgeStyle=orthogonalEdgeStyle;rounded=0;orthogonalLoop=1;jettySize=auto;html=1;exitX=1;exitY=0.5;exitDx=0;exitDy=0;entryX=1;entryY=0.5;entryDx=0;entryDy=0;strokeWidth=4;" edge="1" parent="1" source="8QEgMLqhfqmSk67ohwxv-69" target="8QEgMLqhfqmSk67ohwxv-77">
          <mxGeometry relative="1" as="geometry">
            <mxPoint x="780" y="440" as="targetPoint" />
            <Array as="points">
              <mxPoint x="710" y="809" />
              <mxPoint x="710" y="523" />
            </Array>
          </mxGeometry>
        </mxCell>
        <mxCell id="8QEgMLqhfqmSk67ohwxv-78" value="&lt;font style=&quot;font-size: 24px;&quot;&gt;NO&lt;/font&gt;" style="edgeLabel;html=1;align=center;verticalAlign=middle;resizable=0;points=[];labelBackgroundColor=default;labelBorderColor=default;" vertex="1" connectable="0" parent="8QEgMLqhfqmSk67ohwxv-73">
          <mxGeometry x="-0.7782" y="-3" relative="1" as="geometry">
            <mxPoint x="-1" y="-3" as="offset" />
          </mxGeometry>
        </mxCell>
        <mxCell id="8QEgMLqhfqmSk67ohwxv-69" value="&lt;font style=&quot;font-size: 24px;&quot;&gt;If event is&lt;br&gt;MarginCall&lt;/font&gt;" style="rhombus;whiteSpace=wrap;html=1;" vertex="1" parent="1">
          <mxGeometry x="420" y="709" width="200" height="200" as="geometry" />
        </mxCell>
        <mxCell id="8QEgMLqhfqmSk67ohwxv-75" value="" style="edgeStyle=none;orthogonalLoop=1;jettySize=auto;html=1;rounded=0;strokeWidth=4;" edge="1" parent="1">
          <mxGeometry width="100" relative="1" as="geometry">
            <mxPoint x="519" y="377.09000000000003" as="sourcePoint" />
            <mxPoint x="520" y="470" as="targetPoint" />
            <Array as="points" />
          </mxGeometry>
        </mxCell>
        <mxCell id="8QEgMLqhfqmSk67ohwxv-76" value="&lt;font style=&quot;font-size: 27px;&quot;&gt;&lt;span style=&quot;color: rgb(0, 0, 0); font-family: Helvetica; font-style: normal; font-variant-ligatures: normal; font-variant-caps: normal; font-weight: 400; letter-spacing: normal; orphans: 2; text-indent: 0px; text-transform: none; widows: 2; word-spacing: 0px; -webkit-text-stroke-width: 0px; background-color: rgb(255, 255, 255); text-decoration-thickness: initial; text-decoration-style: initial; text-decoration-color: initial; float: none; display: inline !important;&quot;&gt;Keep Listening&lt;/span&gt;&lt;br style=&quot;border-color: var(--border-color); color: rgb(0, 0, 0); font-family: Helvetica; font-style: normal; font-variant-ligatures: normal; font-variant-caps: normal; font-weight: 400; letter-spacing: normal; orphans: 2; text-indent: 0px; text-transform: none; widows: 2; word-spacing: 0px; -webkit-text-stroke-width: 0px; text-decoration-thickness: initial; text-decoration-style: initial; text-decoration-color: initial; background-color: rgb(251, 251, 251);&quot;&gt;&lt;span style=&quot;border-color: var(--border-color); color: rgb(0, 0, 0); font-family: Helvetica; font-style: normal; font-variant-ligatures: normal; font-variant-caps: normal; font-weight: 400; letter-spacing: normal; orphans: 2; text-indent: 0px; text-transform: none; widows: 2; word-spacing: 0px; -webkit-text-stroke-width: 0px; text-decoration-thickness: initial; text-decoration-style: initial; text-decoration-color: initial; background-color: rgb(251, 251, 251);&quot;&gt;For ALL Events&lt;/span&gt;&lt;/font&gt;" style="text;whiteSpace=wrap;html=1;align=center;" vertex="1" parent="1">
          <mxGeometry x="416.6700000000001" y="481" width="210" height="80" as="geometry" />
        </mxCell>
        <mxCell id="8QEgMLqhfqmSk67ohwxv-80" value="" style="endArrow=none;dashed=1;html=1;dashPattern=1 3;strokeWidth=2;rounded=0;" edge="1" parent="1">
          <mxGeometry width="50" height="50" relative="1" as="geometry">
            <mxPoint x="-710" y="540" as="sourcePoint" />
            <mxPoint x="320" y="540" as="targetPoint" />
          </mxGeometry>
        </mxCell>
        <mxCell id="8QEgMLqhfqmSk67ohwxv-86" value="" style="endArrow=none;dashed=1;html=1;dashPattern=1 3;strokeWidth=2;rounded=0;" edge="1" parent="1">
          <mxGeometry width="50" height="50" relative="1" as="geometry">
            <mxPoint x="-610" y="50" as="sourcePoint" />
            <mxPoint x="-710" y="540" as="targetPoint" />
            <Array as="points">
              <mxPoint x="-710" y="50" />
            </Array>
          </mxGeometry>
        </mxCell>
        <mxCell id="8QEgMLqhfqmSk67ohwxv-88" value="&lt;font style=&quot;font-size: 25px;&quot;&gt;Protocol Buffer&lt;/font&gt;" style="html=1;outlineConnect=0;whiteSpace=wrap;fillColor=#ffff99;shape=mxgraph.archimate3.process;" vertex="1" parent="1">
          <mxGeometry x="29" y="360" width="215" height="80" as="geometry" />
        </mxCell>
        <mxCell id="8QEgMLqhfqmSk67ohwxv-92" value="&lt;font color=&quot;#b5739d&quot; style=&quot;font-size: 34px;&quot;&gt;&lt;b&gt;&lt;i&gt;This is our entire system&lt;/i&gt;&lt;/b&gt;&lt;/font&gt;" style="text;html=1;align=center;verticalAlign=middle;resizable=0;points=[];autosize=1;strokeColor=none;fillColor=none;" vertex="1" parent="1">
          <mxGeometry x="-120" y="700" width="420" height="55" as="geometry" />
        </mxCell>
      </root>
    </mxGraphModel>
  </diagram>
</mxfile>
